<svg xmlns="http://www.w3.org/2000/svg" viewBox="0 0 1000 1000" role="img" aria-labelledby="title desc">
  <title id="title">Open for Bagels</title><desc id="desc">A hand turns a bagel-shaped opening sign below a striped awning.</desc><rect width="1000" height="1000" fill="#fff"/>
  <g fill="none" stroke="#111" stroke-linecap="round" stroke-linejoin="round"><path stroke-width="18" d="M205 289h590l-33 89H238z"/><path stroke-width="18" d="M238 378h524v68H238z"/><path stroke-width="22" d="M243 289l48 89m48-89 48 89m48-89 48 89m48-89 48 89m48-89 48 89m48-89 48 89m48-89 48 89"/><path stroke-width="15" d="M323 446v160m354-160v160M323 521h354"/><path stroke-width="14" d="M500 448v79"/><path stroke-width="11" d="M501 527v43"/><circle cx="501" cy="654" r="139" stroke-width="22"/><circle cx="501" cy="654" r="48" stroke-width="20"/><path stroke-width="13" d="M411 596c38-34 131-44 180 12M413 711c41 39 135 37 179-4"/><path stroke-width="23" d="M107 696c50-9 81-71 119-101 35-28 65-40 105-26l42 39-22 62-70 42-42 83"/><path stroke-width="14" d="M240 609l62 44m-44-74 51 42m-14-57 42 37"/><path stroke-width="11" d="M718 601c23-17 28-49 14-74m29 92c31-28 36-73 17-106"/></g><text x="501" y="672" text-anchor="middle" fill="#111" font-family="Georgia, serif" font-size="42" font-weight="bold" letter-spacing="3">OPEN</text><text x="500" y="856" text-anchor="middle" fill="#111" font-family="Georgia, serif" font-size="39" font-style="italic" letter-spacing="5">OPEN FOR BAGELS</text>
</svg>
