<svg xmlns="http://www.w3.org/2000/svg" viewBox="0 0 512 512"><path d="M106 91h212q22 0 22 22v286q0 22-22 22H106q-22 0-22-22V113q0-22 22-22Z" fill="#DCC7D4" stroke="#fff" stroke-width="20"/><path d="M106 91h212q22 0 22 22v286q0 22-22 22H106q-22 0-22-22V113q0-22 22-22Z" fill="none" stroke="#A4655A" stroke-width="7"/><circle cx="212" cy="220" r="60" fill="none" stroke="#F8D9D2" stroke-width="10"/><path d="M152 220h120M212 160q-29 60 0 120M212 160q29 60 0 120" fill="none" stroke="#F8D9D2" stroke-width="8"/><text x="212" y="335" text-anchor="middle" fill="#F8D9D2" font-family="Arial, sans-serif" font-size="25" font-weight="700">PASSPORT</text><path d="M257 238h185q20 0 20 20v116q0 20-20 20H257q-20 0-20-20V258q0-20 20-20Z" fill="#E7D8C1" stroke="#fff" stroke-width="18"/><path d="M257 238h185q20 0 20 20v116q0 20-20 20H257q-20 0-20-20V258q0-20 20-20Z" fill="none" stroke="#A4655A" stroke-width="7"/><path d="M272 282h151M272 315h102M272 350h77" stroke="#A4655A" stroke-width="8" stroke-linecap="round"/></svg>
