<svg xmlns="http://www.w3.org/2000/svg" width="1000" height="1000" viewBox="0 0 1000 1000"><g stroke="#342E3F" stroke-width="18" stroke-linecap="round" stroke-linejoin="round"><ellipse cx="500" cy="290" rx="80" ry="190" fill="#FFF9F5" transform="rotate(0 500 500)"/><ellipse cx="500" cy="290" rx="80" ry="190" fill="#FFF9F5" transform="rotate(45 500 500)"/><ellipse cx="500" cy="290" rx="80" ry="190" fill="#FFF9F5" transform="rotate(90 500 500)"/><ellipse cx="500" cy="290" rx="80" ry="190" fill="#FFF9F5" transform="rotate(135 500 500)"/><ellipse cx="500" cy="290" rx="80" ry="190" fill="#FFF9F5" transform="rotate(180 500 500)"/><ellipse cx="500" cy="290" rx="80" ry="190" fill="#FFF9F5" transform="rotate(225 500 500)"/><ellipse cx="500" cy="290" rx="80" ry="190" fill="#FFF9F5" transform="rotate(270 500 500)"/><ellipse cx="500" cy="290" rx="80" ry="190" fill="#FFF9F5" transform="rotate(315 500 500)"/><circle cx="500" cy="500" r="105" fill="#E8BBC8"/></g></svg>